<svg xmlns="http://www.w3.org/2000/svg" width="1600" height="900" viewBox="0 0 1600 900">
  <defs>
    <linearGradient id="sky" x1="0" y1="0" x2="1" y2="1">
      <stop offset="0%" stop-color="#dbeafe"/>
      <stop offset="100%" stop-color="#f3e8ff"/>
    </linearGradient>
    <linearGradient id="building" x1="0" y1="0" x2="0" y2="1">
      <stop offset="0%" stop-color="#e6c7b2"/>
      <stop offset="100%" stop-color="#d2ab93"/>
    </linearGradient>
    <linearGradient id="glass" x1="0" y1="0" x2="1" y2="1">
      <stop offset="0%" stop-color="#f8fafc" stop-opacity="0.9"/>
      <stop offset="100%" stop-color="#cbd5f5" stop-opacity="0.8"/>
    </linearGradient>
  </defs>
  <rect width="1600" height="900" fill="url(#sky)"/>
  <rect y="700" width="1600" height="200" fill="#a3b18a" opacity="0.45"/>
  <g fill="url(#building)">
    <rect x="120" y="260" width="380" height="420" rx="10"/>
    <rect x="520" y="200" width="560" height="480" rx="12"/>
    <rect x="1120" y="240" width="360" height="440" rx="10"/>
  </g>
  <rect x="620" y="270" width="360" height="120" rx="8" fill="url(#glass)"/>
  <g fill="#b08b73">
    <rect x="170" y="300" width="280" height="26" rx="6"/>
    <rect x="170" y="360" width="280" height="26" rx="6"/>
    <rect x="170" y="420" width="280" height="26" rx="6"/>
    <rect x="170" y="480" width="280" height="26" rx="6"/>
    <rect x="1170" y="300" width="260" height="26" rx="6"/>
    <rect x="1170" y="360" width="260" height="26" rx="6"/>
    <rect x="1170" y="420" width="260" height="26" rx="6"/>
    <rect x="1170" y="480" width="260" height="26" rx="6"/>
  </g>
  <g fill="#cbb5a4">
    <rect x="640" y="440" width="320" height="30" rx="6"/>
    <rect x="640" y="500" width="320" height="30" rx="6"/>
    <rect x="640" y="560" width="320" height="30" rx="6"/>
  </g>
</svg>
